Coordinates
version=1
nRows=29
nColumns=32
inDegrees=no

Units are S.I. units (second, meters, Newtons, ...)
If the header above contains a line with 'inDegrees', this indicates whether rotational values are in degrees (yes) or radians (no).

endheader
time	pelvis_tilt	pelvis_list	pelvis_rotation	pelvis_tx	pelvis_ty	pelvis_tz	hip_flexion_r	hip_adduction_r	hip_rotation_r	knee_angle_r	ankle_angle_r	subtalar_angle_r	mtp_angle_r	hip_flexion_l	hip_adduction_l	hip_rotation_l	knee_angle_l	ankle_angle_l	subtalar_angle_l	mtp_angle_l	lumbar_extension	lumbar_bending	lumbar_rotation	arm_flex_r	arm_add_r	arm_rot_r	elbow_flex_r	arm_flex_l	arm_add_l	arm_rot_l	elbow_flex_l
0.98	-0.199705	-0.0442497	-0.016291	0.839306	0.995867	-0.29227	0.988078	-0.00267192	-0.111341	1.48699	-0.13495	-0.463069	-0.00677126	-0.106896	-0.138165	-0.52553	0.408552	0.0663165	0.533379	-0.0650414	-0.0484631	0.0121071	-0.264346	-0.841658	-0.257722	-0.224269	1.6775	-0.491998	-0.238245	-0.248264	2.11429
0.985	-0.202219	-0.0481328	-0.0210507	0.840523	0.999351	-0.291768	0.988231	0.00332736	-0.121919	1.42645	-0.13256	-0.460979	-0.00678561	-0.136929	-0.137825	-0.547775	0.375433	-0.00966754	0.54321	-0.0650277	-0.0411734	0.0190071	-0.264603	-0.858183	-0.256945	-0.231248	1.68846	-0.494084	-0.234364	-0.243435	2.13071
0.99	-0.204554	-0.0507197	-0.025464	0.84175	1.0027	-0.291308	0.986332	0.00856191	-0.131201	1.36388	-0.128496	-0.454804	-0.00679998	-0.16524	-0.135631	-0.566159	0.343613	-0.0855873	0.547636	-0.065014	-0.0341744	0.0244972	-0.264581	-0.874051	-0.25546	-0.237925	1.6988	-0.496348	-0.231216	-0.237858	2.14655
0.995	-0.20652	-0.0521055	-0.0294459	0.842965	1.0059	-0.290888	0.982271	0.013098	-0.139208	1.29938	-0.122547	-0.444269	-0.00681435	-0.19183	-0.131887	-0.579459	0.313898	-0.15917	0.545866	-0.0650002	-0.02771	0.0286657	-0.264398	-0.889105	-0.253385	-0.244239	1.70855	-0.498789	-0.228817	-0.231598	2.16183
1	-0.207991	-0.0523839	-0.0329129	0.844147	1.00891	-0.290514	0.976017	0.0169687	-0.146028	1.23309	-0.11471	-0.429245	-0.00682872	-0.216619	-0.126958	-0.586704	0.287231	-0.228247	0.53741	-0.0649865	-0.0219409	0.0316007	-0.264192	-0.903211	-0.250857	-0.250138	1.71776	-0.501445	-0.227162	-0.224765	2.17661
1.005	-0.208909	-0.0516254	-0.0357939	0.845282	1.01172	-0.290203	0.967617	0.0201622	-0.151811	1.1652	-0.105236	-0.409767	-0.00684311	-0.239461	-0.121209	-0.587243	0.264631	-0.290971	0.522163	-0.0649728	-0.0169502	0.0333689	-0.264098	-0.916249	-0.248016	-0.25558	1.72649	-0.504377	-0.226224	-0.217506	2.19093
1.01	-0.209277	-0.0498699	-0.0380376	0.846348	1.01431	-0.289968	0.957188	0.0226252	-0.156785	1.09594	-0.0946457	-0.386067	-0.0068575	-0.260153	-0.114958	-0.580777	0.247104	-0.345959	0.500445	-0.0649591	-0.0127549	0.0340066	-0.264234	-0.928112	-0.244986	-0.260532	1.73479	-0.507653	-0.225957	-0.20999	2.20481
1.015	-0.209137	-0.0471386	-0.0396241	0.847344	1.01668	-0.289816	0.944927	0.0242808	-0.16126	1.02563	-0.0837061	-0.358577	-0.00687189	-0.278462	-0.108443	-0.56734	0.235561	-0.392331	0.473008	-0.0649453	-0.00931104	0.0335288	-0.264678	-0.938702	-0.241866	-0.264978	1.74269	-0.511323	-0.2263	-0.202392	2.21822
1.02	-0.208569	-0.0434519	-0.0405696	0.848271	1.01881	-0.289751	0.931103	0.0250543	-0.165635	0.954649	-0.0733421	-0.327912	-0.0068863	-0.294153	-0.101811	-0.547283	0.23073	-0.429669	0.441003	-0.0649316	-0.006529	0.0319463	-0.265457	-0.947928	-0.238721	-0.268913	1.75017	-0.515414	-0.227176	-0.194876	2.23112
1.025	-0.207686	-0.0388464	-0.0409308	0.849126	1.0207	-0.289769	0.916054	0.0249024	-0.170366	0.883526	-0.0644994	-0.294795	-0.00690071	-0.307022	-0.0951208	-0.521253	0.233095	-0.457943	0.405898	-0.0649179	-0.00429056	0.0292883	-0.266532	-0.95571	-0.235581	-0.27235	1.75723	-0.519911	-0.228499	-0.187571	2.24336
1.03	-0.206607	-0.0333875	-0.0408088	0.84991	1.02232	-0.289861	0.900165	0.0238406	-0.175924	0.812896	-0.0579733	-0.259975	-0.00691514	-0.316928	-0.0883684	-0.490167	0.242862	-0.477429	0.369345	-0.0649042	-0.00247191	0.0256218	-0.267793	-0.961987	-0.232445	-0.27532	1.7638	-0.52476	-0.230173	-0.180564	2.25481
1.035	-0.205444	-0.0271766	-0.0403492	0.850622	1.02367	-0.290011	0.883836	0.0219596	-0.182735	0.743508	-0.0542494	-0.22416	-0.00692957	-0.323815	-0.0815119	-0.455196	0.259959	-0.48864	0.333043	-0.0648905	-0.00096981	0.02106	-0.269059	-0.966709	-0.229292	-0.277866	1.76983	-0.529876	-0.232097	-0.173903	2.2653
1.04	-0.20427	-0.0203507	-0.0397353	0.851258	1.02475	-0.290198	0.867434	0.0194273	-0.191135	0.676186	-0.0533997	-0.187994	-0.00694401	-0.327729	-0.0745053	-0.417741	0.284066	-0.492292	0.298612	-0.0648769	0.000275338	0.0157613	-0.270102	-0.969841	-0.226098	-0.280029	1.77528	-0.535149	-0.234166	-0.167614	2.27464
1.045	-0.203119	-0.0130781	-0.0391732	0.851817	1.02555	-0.290396	0.851261	0.0164764	-0.20132	0.61178	-0.0550686	-0.152038	-0.00695847	-0.32881	-0.0673278	-0.379365	0.314666	-0.489321	0.26746	-0.0648632	0.00127174	0.00992219	-0.270664	-0.971361	-0.222848	-0.281845	1.78009	-0.540457	-0.236272	-0.16171	2.28267
1.05	-0.201981	-0.00554725	-0.0388719	0.852297	1.02609	-0.290582	0.835541	0.0133776	-0.21331	0.551109	-0.0585612	-0.116764	-0.00697293	-0.327267	-0.0600018	-0.341677	0.351109	-0.48093	0.240617	-0.0648495	0.00198608	0.00376525	-0.27049	-0.971263	-0.219549	-0.283338	1.78422	-0.545687	-0.238308	-0.156193	2.28927
1.055	-0.200824	0.00204987	-0.0390188	0.852697	1.02638	-0.290736	0.820421	0.0104016	-0.226929	0.494916	-0.0630205	-0.082566	-0.00698741	-0.323339	-0.0525927	-0.306151	0.392683	-0.468594	0.218586	-0.0648358	0.00236357	-0.00247909	-0.269355	-0.969564	-0.21623	-0.284525	1.78768	-0.550738	-0.240169	-0.151052	2.29431
1.06	-0.199602	0.00953568	-0.0397518	0.853017	1.02644	-0.290847	0.805995	0.00777153	-0.241816	0.443833	-0.0676457	-0.0497989	-0.00700189	-0.317258	-0.0451982	-0.273957	0.438681	-0.453963	0.201277	-0.0648222	0.00234868	-0.00859309	-0.267098	-0.966306	-0.212946	-0.28541	1.79048	-0.555536	-0.241766	-0.146266	2.2977
1.065	-0.198274	0.0167617	-0.0411319	0.853258	1.02628	-0.290914	0.792328	0.00561853	-0.257472	0.398376	-0.0718779	-0.018822	-0.00701639	-0.309213	-0.0379353	-0.24584	0.488454	-0.438657	0.188047	-0.0648085	0.00190261	-0.0143898	-0.263648	-0.961553	-0.209767	-0.285995	1.79265	-0.560036	-0.243027	-0.14181	2.2994
1.07	-0.196814	0.0236164	-0.0431284	0.853419	1.02592	-0.290944	0.779488	0.00395116	-0.273336	0.35895	-0.0754913	0.00997759	-0.0070309	-0.299342	-0.0309331	-0.222099	0.541448	-0.424056	0.177838	-0.0647949	0.00101352	-0.0197248	-0.259046	-0.955389	-0.206783	-0.286274	1.79426	-0.564227	-0.243899	-0.137671	2.29941
1.075	-0.195223	0.0300222	-0.04562	0.853498	1.02537	-0.290956	0.767559	0.00265213	-0.288868	0.325869	-0.0785721	0.0361995	-0.00704541	-0.287732	-0.0243347	-0.202655	0.597202	-0.411134	0.16936	-0.0647812	-0.000301278	-0.0244939	-0.25344	-0.947909	-0.204088	-0.286237	1.79538	-0.568128	-0.244349	-0.133853	2.29776
1.08	-0.193518	0.0359212	-0.0484159	0.853494	1.02462	-0.29097	0.756636	0.00150767	-0.303625	0.29935	-0.081413	0.0594703	-0.00705994	-0.274442	-0.0183032	-0.187157	0.655332	-0.400397	0.161272	-0.0647676	-0.00200375	-0.0286196	-0.247062	-0.93921	-0.201782	-0.28588	1.7961	-0.571776	-0.244354	-0.130381	2.29454
1.085	-0.191727	0.0412553	-0.0512878	0.853406	1.02369	-0.29101	0.746786	0.000266893	-0.317293	0.279481	-0.0843718	0.0794799	-0.00707449	-0.259535	-0.0130299	-0.175111	0.715499	-0.391892	0.152348	-0.0647539	-0.0040504	-0.0320289	-0.240188	-0.929384	-0.199958	-0.285202	1.79649	-0.57522	-0.243902	-0.1273	2.28989
1.09	-0.189874	0.0459494	-0.0540069	0.853236	1.02256	-0.291095	0.738005	-0.0012851	-0.329671	0.266166	-0.087749	0.0959935	-0.00708904	-0.243108	-0.00873453	-0.165973	0.777379	-0.385279	0.141605	-0.0647403	-0.00640412	-0.0346362	-0.233096	-0.918519	-0.198697	-0.284217	1.79662	-0.578507	-0.242988	-0.124655	2.28394
1.095	-0.187974	0.0499046	-0.0563752	0.852991	1.02124	-0.291239	0.730184	-0.00326388	-0.340607	0.259089	-0.0917132	0.108837	-0.0071036	-0.225297	-0.0056543	-0.159219	0.840642	-0.379935	0.128376	-0.0647267	-0.00903462	-0.0363373	-0.226027	-0.906709	-0.198055	-0.282949	1.79656	-0.581672	-0.241616	-0.122471	2.27684
1.1	-0.186034	0.0530048	-0.0582473	0.852681	1.01972	-0.291444	0.72311	-0.00565149	-0.349921	0.257714	-0.0962725	0.117869	-0.00711818	-0.206278	-0.00402311	-0.154372	0.904935	-0.375094	0.112335	-0.064713	-0.0119136	-0.0370176	-0.219146	-0.894054	-0.198065	-0.281432	1.79639	-0.584736	-0.239803	-0.120741	2.26871
1.105	-0.184052	0.0551328	-0.0595395	0.852323	1.018	-0.291705	0.716495	-0.0082929	-0.357325	0.261351	-0.101266	0.122933	-0.00713277	-0.186253	-0.00404814	-0.151023	0.969886	-0.36997	0.0934874	-0.0646994	-0.015012	-0.0365684	-0.212541	-0.880664	-0.198728	-0.279711	1.79614	-0.5877	-0.237578	-0.11942	2.25965
1.11	-0.18202	0.0561849	-0.0602305	0.851933	1.01609	-0.292008	0.71003	-0.0109138	-0.36239	0.269256	-0.106344	0.12382	-0.00714737	-0.165429	-0.00589265	-0.148824	1.03511	-0.363871	0.072129	-0.0646858	-0.0183005	-0.0349002	-0.206219	-0.866639	-0.200032	-0.27783	1.79586	-0.590554	-0.234982	-0.118434	2.24972
1.115	-0.179929	0.0560786	-0.060355	0.851529	1.01398	-0.292332	0.703442	-0.0131533	-0.364582	0.280751	-0.110918	0.120274	-0.00716198	-0.143994	-0.00966979	-0.147481	1.10024	-0.356268	0.0487789	-0.0646722	-0.0217511	-0.0319479	-0.200126	-0.852065	-0.201957	-0.27582	1.79554	-0.593282	-0.232062	-0.117699	2.23896
1.12	-0.177772	0.054756	-0.0599918	0.851124	1.01167	-0.292654	0.696552	-0.0146111	-0.363369	0.295325	-0.114098	0.112021	-0.00717661	-0.122095	-0.0154431	-0.146739	1.16496	-0.346839	0.0240941	-0.0646585	-0.0253401	-0.0276724	-0.194166	-0.837002	-0.204493	-0.273694	1.79519	-0.595872	-0.22886	-0.117131	2.22738
